<?xml version="1.0" encoding="UTF-8"?>
<svg id="Layer_1" xmlns="http://www.w3.org/2000/svg" xmlns:xlink="http://www.w3.org/1999/xlink" version="1.1" viewBox="0 0 866.27 793.98">
  <!-- Generator: Adobe Illustrator 29.5.1, SVG Export Plug-In . SVG Version: 2.1.0 Build 141)  -->
  <defs>
    <style>
      .st0 {
        fill: #f4bac0;
      }

      .st1 {
        fill: #b20f22;
        opacity: .82;
      }

      .st2 {
        fill: url(#linear-gradient);
      }

      .st3 {
        fill: #e88797;
      }

      .st4 {
        opacity: .87;
      }

      .st4, .st5 {
        fill: #e09fa7;
      }

      .st6 {
        opacity: .67;
      }

      .st6, .st7 {
        fill: #a00b17;
      }

      .st8 {
        fill: #3d97e8;
      }

      .st9 {
        fill: #cc293d;
        opacity: .85;
      }

      .st10 {
        opacity: .64;
      }

      .st10, .st11, .st12 {
        fill: #f15c4e;
      }

      .st11 {
        opacity: .81;
      }
    </style>
    <linearGradient id="linear-gradient" x1="157.94" y1="749.99" x2="712.06" y2="31.14" gradientUnits="userSpaceOnUse">
      <stop offset="0" stop-color="#2b5da5"/>
      <stop offset=".51" stop-color="#232b38"/>
    </linearGradient>
  </defs>
  <polygon class="st7" points="591.35 769.39 842.77 769.39 281.07 24.58 29.66 24.58 591.35 769.39"/>
  <polygon class="st8" points="591.35 769.39 842.77 769.39 281.07 24.58 29.66 24.58 591.35 769.39"/>
  <polygon class="st2" points="274.91 769.39 23.49 769.39 585.19 24.58 836.61 24.58 274.91 769.39"/>
  <g>
    <polygon class="st12" points="281.07 24.58 232.72 149.21 29.66 24.58 281.07 24.58"/>
    <polygon class="st1" points="542.18 370.81 286 261.54 281.07 24.58 542.18 370.81"/>
    <polygon class="st4" points="542.18 370.81 432.39 420.13 286 261.54 542.18 370.81"/>
    <polygon class="st7" points="288.2 367.41 195.67 244.72 281.07 24.58 288.2 367.41"/>
    <polygon class="st0" points="232.72 149.21 195.67 244.72 29.66 24.58 232.72 149.21"/>
    <polygon class="st6" points="411.63 531.08 432.39 420.13 288.2 367.41 411.63 531.08"/>
    <polygon class="st10" points="432.39 420.13 288.2 367.41 286 261.54 432.39 420.13"/>
    <polygon class="st12" points="842.77 769.39 591.35 769.39 613.93 628.3 842.77 769.39"/>
    <polygon class="st5" points="842.77 769.39 613.93 628.3 613.93 465.96 842.77 769.39"/>
    <polygon class="st7" points="591.35 769.39 411.63 531.08 613.93 628.3 591.35 769.39"/>
    <polygon class="st11" points="542.18 370.81 613.93 465.96 432.39 420.13 542.18 370.81"/>
    <polygon class="st9" points="411.63 531.08 432.39 420.13 613.93 465.96 411.63 531.08"/>
    <polygon class="st3" points="478.54 509.54 613.93 465.96 613.93 628.3 478.54 509.54"/>
    <polygon class="st12" points="411.63 531.08 478.54 509.54 613.93 628.3 411.63 531.08"/>
  </g>
</svg>